<svg width="458" height="458" viewBox="0 0 458 458" fill="none" xmlns="http://www.w3.org/2000/svg">
<path opacity="0.7" fill-rule="evenodd" clip-rule="evenodd" d="M178.297 10.9798C197.042 29.7246 215.066 59.5276 228.165 91.6526C241.416 57.1416 260.569 24.6175 280.541 4.64609C327.591 -42.4042 397.002 -27.2824 437.978 13.6942C478.955 54.6708 499.506 118.653 447.026 171.132C423.57 194.588 388.296 215.084 352.191 227.999C391.474 241.148 429.941 262.624 452.455 285.138C499.505 332.188 484.384 401.599 443.407 442.576C402.43 483.552 338.449 504.103 285.97 451.624C261.835 427.489 240.834 390.841 228 353.652C215.046 388.953 194.923 423.235 171.964 446.195C119.484 498.674 55.5027 478.123 14.5261 437.147C-26.4504 396.17 -41.5723 326.76 5.47801 279.709C25.084 260.103 56.7875 241.285 90.5923 228.067C60.288 215.241 31.7707 197.425 11.8111 177.465C-40.668 124.986 -20.1173 61.0045 20.8593 20.0279C61.8358 -20.9487 131.246 -36.0705 178.297 10.9798ZM302.031 156.998C261.657 195.736 198.051 196.178 157.143 158.004C195.882 198.377 196.324 261.984 158.149 302.892C198.523 264.153 262.13 263.711 303.037 301.885C264.298 261.512 263.857 197.905 302.031 156.998Z" fill="#9ECDF2"/>
</svg>
