<svg width="218" height="64" viewBox="0 0 218 64" fill="none" xmlns="http://www.w3.org/2000/svg">
<g clip-path="url(#clip0_192_42)">
<path d="M49.572 47.0223L64.5944 31.9999L32.5944 0L17.572 15.0224L25.4561 22.9064L32.3006 16.0619L38.3296 22.0909L37.2427 32.453L42.9672 26.7286L48.5324 32.2938L41.6879 39.1383L49.572 47.0223Z" fill="white"/>
<path d="M15.6166 16.9775L0.594238 31.9999L32.5942 64L47.6166 48.9775L39.7326 41.0935L32.888 47.938L26.859 41.909L27.9459 31.5468L22.2214 37.2713L16.6562 31.7061L23.5007 24.8616L15.6166 16.9775Z" fill="white"/>
</g>
<g clip-path="url(#clip1_192_42)">
<path d="M105.499 50.7964H80.7434V14.6832H105.499V21.9109H87.9711V29.1386H99.8325V36.3663H87.9711V43.5688H105.499V50.7964ZM132.045 50.7964H130.383L127.714 47.0944C127.059 47.6821 126.362 48.2361 125.623 48.7566C124.902 49.2603 124.138 49.7051 123.332 50.0913C122.526 50.4607 121.695 50.7544 120.839 50.9728C119.999 51.191 119.143 51.3001 118.27 51.3001C116.373 51.3001 114.585 50.9475 112.906 50.2424C111.244 49.5205 109.783 48.5299 108.524 47.2708C107.282 45.9948 106.299 44.4922 105.577 42.7629C104.855 41.0168 104.495 39.1196 104.495 37.0714C104.495 35.04 104.855 33.1511 105.577 31.4051C106.299 29.659 107.282 28.1481 108.524 26.8721C109.783 25.5961 111.244 24.5972 112.906 23.8752C114.585 23.1533 116.373 22.7923 118.27 22.7923C118.874 22.7923 119.496 22.8427 120.134 22.9434C120.788 23.0442 121.418 23.2121 122.022 23.4471C122.643 23.6654 123.223 23.9592 123.76 24.3285C124.297 24.6979 124.751 25.1511 125.12 25.6884V13.0967H132.045V50.7964ZM125.12 37.0714C125.12 36.1312 124.935 35.2246 124.566 34.3516C124.213 33.4618 123.726 32.681 123.105 32.0095C122.484 31.3212 121.754 30.7755 120.914 30.3726C120.092 29.9529 119.21 29.743 118.27 29.743C117.33 29.743 116.44 29.9109 115.6 30.2467C114.778 30.5824 114.056 31.0693 113.435 31.7073C112.83 32.3285 112.352 33.0924 111.999 33.999C111.647 34.9056 111.47 35.9297 111.47 37.0714C111.47 38.062 111.647 39.0021 111.999 39.892C112.352 40.7818 112.83 41.5625 113.435 42.234C114.056 42.9056 114.778 43.4344 115.6 43.8206C116.44 44.2067 117.33 44.3998 118.27 44.3998C119.21 44.3998 120.092 44.1984 120.914 43.7954C121.754 43.3756 122.484 42.83 123.105 42.1585C123.726 41.4701 124.213 40.6895 124.566 39.8164C124.935 38.9265 125.12 38.0116 125.12 37.0714ZM154.034 47.6485C153.48 48.1522 152.884 48.6306 152.246 49.0839C151.624 49.5205 150.97 49.9066 150.281 50.2424C149.593 50.5614 148.879 50.8132 148.141 50.9979C147.419 51.1994 146.68 51.3001 145.925 51.3001C144.262 51.3001 142.701 51.0063 141.24 50.4187C139.78 49.831 138.495 49 137.387 47.9255C136.296 46.8342 135.431 45.5163 134.793 43.9717C134.172 42.4103 133.862 40.6643 133.862 38.7335V23.8248H140.712V38.7335C140.712 39.6401 140.846 40.4544 141.114 41.1764C141.4 41.8815 141.778 42.4774 142.248 42.9643C142.718 43.4512 143.263 43.8206 143.885 44.0724C144.523 44.3243 145.203 44.4502 145.925 44.4502C146.63 44.4502 147.293 44.2907 147.914 43.9717C148.552 43.636 149.106 43.1994 149.576 42.6621C150.046 42.1249 150.416 41.5205 150.684 40.8489C150.953 40.1606 151.087 39.4554 151.087 38.7335V23.8248H157.962V50.7964H156.3L154.034 47.6485Z" fill="white"/>
<path d="M193.736 50.9801H175.234V23.9897H193.736V29.3916H180.636V34.7935H189.501V40.1953H180.636V45.5783H193.736V50.9801ZM217.33 50.9801H210.78L205.586 42.2657L200.371 50.9801H193.859L202.141 37.4849L193.859 23.9897H200.371L205.586 32.7042L210.78 23.9897H217.33L209.049 37.4849L217.33 50.9801Z" fill="white"/>
<path d="M180.546 51.0256H174.773L164.375 33.2748V51.0256H158.978V24.061H164.751L175.149 41.8306V24.061H180.546V51.0256Z" fill="white"/>
</g>
<defs>
<clipPath id="clip0_192_42">
<rect width="64" height="64" fill="white" transform="translate(0.594238)"/>
</clipPath>
<clipPath id="clip1_192_42">
<rect width="140.011" height="64" fill="white" transform="translate(77.3943)"/>
</clipPath>
</defs>
</svg>
