<svg width="40" height="40" viewBox="0 0 40 40" fill="none" xmlns="http://www.w3.org/2000/svg">
<path d="M8.4115 32.2235L7.7189 30.4416L7.24324 32.2947L5.35303 32.4101L6.94924 33.44L6.47376 35.2933L7.93584 34.0766L9.53205 35.1067L8.83945 33.3248L10.3015 32.1081L8.4115 32.2235Z" fill="#4A90E2"/>
<path d="M3.20462 23.6174L4.21751 22.7745L2.90792 22.8544L2.42812 21.6198L2.09865 22.9039L0.789062 22.9838L1.89503 23.6974L1.56538 24.9814L2.57845 24.1384L3.68442 24.8522L3.20462 23.6174Z" fill="#4A90E2"/>
<path d="M0.432089 15.0897L0.996147 14.6204L1.61169 15.0176L1.34452 14.3305L1.9084 13.8612L1.17942 13.9058L0.912428 13.2184L0.728971 13.9333L0 13.9777L0.615548 14.3749L0.432089 15.0897Z" fill="#4A90E2"/>
<path d="M35.6521 27.5987L35.2495 26.03L34.6633 27.5383L33.0635 27.4407L34.3011 28.4705L33.7149 29.9788L35.0659 29.1069L36.3034 30.1368L35.9009 28.5681L37.252 27.6963L35.6521 27.5987Z" fill="#4A90E2"/>
<path d="M38.9167 18.2923L38.6603 17.2929L38.2868 18.2539L37.2676 18.1916L38.056 18.8477L37.6826 19.8086L38.5433 19.2532L39.3317 19.9093L39.0753 18.9099L39.9361 18.3543L38.9167 18.2923Z" fill="#4A90E2"/>
<path d="M17.6453 38.0972L17.2674 36.9213L16.8895 38.0972H15.6665L16.6558 38.8239L16.2779 40L17.2674 39.2731L18.2567 40L17.8788 38.8239L18.8681 38.0972H17.6453Z" fill="#4A90E2"/>
<path d="M28.0423 36.4032L27.6644 35.2273L27.2865 36.4032H26.0635L27.053 37.1301L26.6751 38.306L27.6644 37.5793L28.6539 38.306L28.276 37.1301L29.2653 36.4032H28.0423Z" fill="#4A90E2"/>
<path d="M21.5553 3.52745C21.0526 3.21052 20.0804 2.47857 20.0001 2.41813C19.9198 2.47857 18.9476 3.21071 18.4449 3.52745C14.4125 6.06992 9.37105 6.96443 5.58919 7.15283C3.05246 29.9839 19.1163 34.1538 20.0001 34.3655C20.8839 34.1538 36.9477 29.9837 34.411 7.15283C30.6291 6.96443 25.5877 6.06992 21.5553 3.52745ZM30.5123 10.0557C25.8283 10.3037 23.367 11.3296 21.0395 12.8099C23.0645 11.0249 25.782 9.34289 30.5076 9.19526L30.5123 10.0557ZM28.6329 8.01896L28.6667 8.78241C24.4864 9.32341 22.117 11.1896 20.2612 12.9694C21.146 11.5251 24.2061 8.43564 28.6329 8.01896ZM11.3673 8.01896C15.7942 8.43564 18.8542 11.5251 19.739 12.9696C17.8832 11.1898 15.5137 9.32359 11.3335 8.78258L11.3673 8.01896ZM9.49258 9.19526C14.2182 9.34289 16.9357 11.0249 18.9607 12.8099C16.6332 11.3296 14.1719 10.3037 9.4879 10.0557L9.49258 9.19526ZM31.2942 22.1738L29.429 20.2879C29.2519 20.1088 28.9647 20.1086 28.7874 20.2879C28.6102 20.467 28.6102 20.7573 28.7874 20.9365L29.7419 21.9016L29.3611 22.2808L25.8241 18.7045C25.647 18.5254 25.3598 18.5254 25.1825 18.7045C25.0053 18.8837 25.0053 19.174 25.1825 19.3531L27.109 21.3013L26.6923 21.7216L23.7676 18.7644C23.5904 18.5853 23.3032 18.5853 23.1259 18.7644C22.9487 18.9436 22.9487 19.2339 23.1259 19.413L26.0499 22.3694L25.6927 22.7299L23.2343 20.2442C23.0571 20.0651 22.77 20.0649 22.5926 20.2442C22.4155 20.4233 22.4155 20.7137 22.5926 20.8928L25.0503 23.3777L24.7088 23.7221L23.5499 22.5504C23.3727 22.3713 23.0856 22.3713 22.9082 22.5504C22.7311 22.7295 22.7311 23.0199 22.9082 23.199L26.9927 27.3288L26.5851 27.365C24.5639 27.6537 22.2963 28.1931 19.9999 29.1429C17.7035 28.1931 15.4358 27.6537 13.4145 27.365L13.0069 27.3288L17.0914 23.199C17.2686 23.0199 17.2686 22.7295 17.0914 22.5504C16.9143 22.3713 16.6271 22.3713 16.4498 22.5504L15.2909 23.7221L14.9493 23.3777L17.407 20.8928C17.5842 20.7137 17.5842 20.4233 17.407 20.2442C17.2297 20.0649 16.9425 20.0651 16.7654 20.2442L14.307 22.7299L13.9496 22.3694L16.8736 19.413C17.0507 19.2339 17.0507 18.9436 16.8736 18.7644C16.6964 18.5853 16.4093 18.5853 16.2319 18.7644L13.3072 21.7216L12.8904 21.3013L14.817 19.3531C14.9942 19.174 14.9942 18.8837 14.817 18.7045C14.6397 18.5254 14.3525 18.5254 14.1753 18.7045L10.6383 22.2808L10.2576 21.9016L11.2121 20.9365C11.3893 20.7573 11.3893 20.467 11.2121 20.2879C11.035 20.1086 10.7476 20.1088 10.5705 20.2879L8.70527 22.1738L7.15119 10.4364C13.654 10.4364 16.5308 11.7372 19.2844 13.6637C19.4996 13.8142 19.7495 13.8894 19.9994 13.8894C20.2493 13.8894 20.4992 13.8142 20.7143 13.6637C23.468 11.7372 26.3448 10.4364 32.8476 10.4364L31.2942 22.1738Z" fill="#4A90E2"/>
<path d="M5.69935 28.4705L6.93692 27.4408L5.33711 27.5383L4.75091 26.03L4.34835 27.5988L2.74854 27.6963L4.09953 28.5681L3.69697 30.1369L4.93455 29.1069L6.28573 29.9789L5.69935 28.4705Z" fill="#4A90E2"/>
<path d="M1.45673 19.2532L2.31749 19.8086L1.94409 18.8477L2.73248 18.1916L1.71329 18.2539L1.33971 17.2929L1.08334 18.2923L0.0639648 18.3543L0.924723 18.9099L0.668351 19.9093L1.45673 19.2532Z" fill="#4A90E2"/>
<path d="M32.7565 32.2947L32.2809 30.4416L31.5883 32.2235L29.6982 32.1081L31.1603 33.3248L30.4677 35.1067L32.0639 34.0766L33.526 35.2933L33.0505 33.44L34.6467 32.4101L32.7565 32.2947Z" fill="#4A90E2"/>
<path d="M37.9016 22.9039L37.5721 21.6199L37.0923 22.8544L35.7827 22.7745L36.7956 23.6175L36.3158 24.8522L37.4218 24.1385L38.4348 24.9815L38.1052 23.6974L39.2112 22.9838L37.9016 22.9039Z" fill="#4A90E2"/>
<path d="M38.3885 15.0176L39.0042 14.6204L39.5681 15.0897L39.3846 14.3749L40.0002 13.9777L39.2712 13.9333L39.0878 13.2184L38.8208 13.9058L38.0918 13.8612L38.6557 14.3305L38.3885 15.0176Z" fill="#4A90E2"/>
<path d="M23.1106 38.0972L22.7325 36.9213L22.3546 38.0972H21.1318L22.1211 38.8239L21.7432 40L22.7325 39.2731L23.722 40L23.3441 38.8239L24.3334 38.0972H23.1106Z" fill="#4A90E2"/>
<path d="M12.7137 36.4032L12.3358 35.2273L11.9579 36.4032H10.7349L11.7242 37.1301L11.3463 38.306L12.3358 37.5793L13.3251 38.306L12.9472 37.1301L13.9366 36.4032H12.7137Z" fill="#4A90E2"/>
<path d="M36.3163 6.93641L36.1343 5.29756L34.5051 5.21636C31.8096 5.0822 26.6748 4.47075 22.5694 1.88241C22.2396 1.67452 21.538 1.15992 21.1471 0.864662L20.0015 0L18.8549 0.863196C18.3617 1.23455 17.7302 1.69364 17.4304 1.88259C13.325 4.47094 8.19036 5.08239 5.49484 5.21655L3.86568 5.29774L3.68366 6.93659C2.28189 19.5525 6.42293 26.7683 10.1438 30.5999C14.3222 34.9029 19.0345 36.1269 19.5583 36.2523L20.0003 36.3581L20.4423 36.2523C20.9658 36.1269 25.6783 34.9029 29.8568 30.5999C33.5771 26.7681 37.7181 19.5523 36.3163 6.93641ZM20.2208 35.3088L19.9999 35.3618L19.779 35.3088C19.283 35.1899 14.8179 34.0297 10.8277 29.9206C7.2529 26.2391 3.2766 19.282 4.63642 7.04471L4.72734 6.22538L5.54183 6.18479C8.33025 6.04608 13.6485 5.40932 17.9376 2.7052C18.2838 2.48694 18.9564 1.99545 19.4274 1.64085L20.0008 1.20924L20.5737 1.64157C20.9213 1.90407 21.68 2.46419 22.0626 2.7052C26.3516 5.4095 31.6699 6.04608 34.4583 6.18479L35.2728 6.22538L35.3637 7.04471C36.7234 19.282 32.7473 26.2391 29.1724 29.9206C25.1819 34.0297 20.717 35.1899 20.2208 35.3088Z" fill="#4A90E2"/>
</svg>
