<svg width="136" height="40" viewBox="0 0 136 40" fill="none" xmlns="http://www.w3.org/2000/svg">
<g clip-path="url(#clip0_735_458)">
<path d="M30.6108 29.389L39.9998 20L19.9998 0L10.6108 9.389L15.5384 14.3165L19.8162 10.0387L23.5843 13.8068L22.905 20.2832L26.4828 16.7054L29.9611 20.1836L25.6833 24.4614L30.6108 29.389Z" fill="#7D7D7D"/>
<path d="M9.389 10.611L0 20L20 40L29.389 30.6109L24.4614 25.6834L20.1836 29.9613L16.4155 26.1931L17.0948 19.7168L13.517 23.2946L10.0387 19.8163L14.3165 15.5385L9.389 10.611Z" fill="#4A90E2"/>
</g>
<g clip-path="url(#clip1_735_458)">
<path d="M65.5654 31.7479H50.0933V9.17712H65.5654V13.6944H54.6105V18.2117H62.0239V22.729H54.6105V27.2306H65.5654V31.7479ZM82.157 31.7479H81.1182L79.4497 29.4341C79.0405 29.8014 78.605 30.1477 78.1433 30.473C77.6921 30.7878 77.2147 31.0658 76.7111 31.3072C76.2073 31.538 75.688 31.7216 75.1528 31.8581C74.6281 31.9945 74.093 32.0627 73.5473 32.0627C72.3616 32.0627 71.2441 31.8423 70.1948 31.4017C69.156 30.9504 68.243 30.3313 67.456 29.5443C66.6796 28.7469 66.0657 27.8077 65.6145 26.7269C65.1633 25.6356 64.9377 24.4499 64.9377 23.1697C64.9377 21.9001 65.1633 20.7196 65.6145 19.6283C66.0657 18.537 66.6796 17.5927 67.456 16.7952C68.243 15.9977 69.156 15.3733 70.1948 14.9221C71.2441 14.4709 72.3616 14.2453 73.5473 14.2453C73.9251 14.2453 74.3133 14.2768 74.7121 14.3398C75.1213 14.4027 75.5148 14.5077 75.8925 14.6545C76.2808 14.791 76.6428 14.9746 76.9786 15.2054C77.3144 15.4363 77.5977 15.7196 77.8285 16.0554V8.18555H82.157V31.7479ZM77.8285 23.1697C77.8285 22.5821 77.7131 22.0155 77.4823 21.4698C77.2619 20.9137 76.9576 20.4258 76.5694 20.0061C76.1811 19.5759 75.7247 19.2348 75.2 18.983C74.6858 18.7207 74.1349 18.5895 73.5473 18.5895C72.9597 18.5895 72.4036 18.6944 71.8789 18.9043C71.3647 19.1141 70.9136 19.4184 70.5253 19.8172C70.1476 20.2054 69.8485 20.6829 69.6281 21.2495C69.4078 21.8161 69.2976 22.4562 69.2976 23.1697C69.2976 23.7889 69.4078 24.3764 69.6281 24.9326C69.8485 25.4888 70.1476 25.9767 70.5253 26.3964C70.9136 26.8161 71.3647 27.1466 71.8789 27.388C72.4036 27.6293 72.9597 27.75 73.5473 27.75C74.1349 27.75 74.6858 27.6241 75.2 27.3723C75.7247 27.1099 76.1811 26.7689 76.5694 26.3492C76.9576 25.919 77.2619 25.431 77.4823 24.8854C77.7131 24.3292 77.8285 23.7574 77.8285 23.1697ZM95.8996 29.7804C95.5533 30.0952 95.1808 30.3943 94.7821 30.6776C94.3939 30.9504 93.9846 31.1917 93.5544 31.4017C93.1242 31.601 92.6782 31.7584 92.2165 31.8738C91.7653 31.9998 91.3037 32.0627 90.8315 32.0627C89.7926 32.0627 88.8168 31.8791 87.9038 31.5118C86.9909 31.1445 86.1882 30.6251 85.4957 29.9536C84.8136 29.2715 84.2732 28.4478 83.8745 27.4825C83.4862 26.5066 83.2921 25.4153 83.2921 24.2086V14.8906H87.5733V24.2086C87.5733 24.7752 87.6572 25.2841 87.8251 25.7353C88.0035 26.176 88.2396 26.5485 88.5335 26.8528C88.8273 27.1571 89.1683 27.388 89.5566 27.5454C89.9553 27.7028 90.3802 27.7815 90.8315 27.7815C91.2721 27.7815 91.6866 27.6818 92.0749 27.4825C92.4736 27.2726 92.8199 26.9998 93.1137 26.6639C93.4075 26.3282 93.6384 25.9504 93.8062 25.5307C93.9741 25.1005 94.0581 24.6598 94.0581 24.2086V14.8906H98.3551V31.7479H97.3162L95.8996 29.7804Z" fill="#4A90E2"/>
<path d="M120.713 31.8624H109.15V14.9934H120.713V18.3696H112.526V21.7457H118.067V25.1219H112.526V28.4862H120.713V31.8624ZM135.46 31.8624H131.366L128.12 26.4159L124.861 31.8624H120.791L125.967 23.4279L120.791 14.9934H124.861L128.12 20.4399L131.366 14.9934H135.46L130.284 23.4279L135.46 31.8624Z" fill="#7D7D7D"/>
<path d="M112.47 31.8912H108.862L102.363 20.797V31.8912H98.9897V15.0383H102.598L109.097 26.1443V15.0383H112.47V31.8912Z" fill="#7D7D7D"/>
</g>
<defs>
<clipPath id="clip0_735_458">
<rect width="40" height="40" fill="white"/>
</clipPath>
<clipPath id="clip1_735_458">
<rect width="87.5072" height="40" fill="white" transform="translate(48)"/>
</clipPath>
</defs>
</svg>
