<svg width="1527" height="698" viewBox="0 0 1527 698" fill="none" xmlns="http://www.w3.org/2000/svg">
<path d="M306.519 554H36.5295V160.14H306.519V238.967H115.356V317.794H244.72V396.621H115.356V475.173H306.519V554ZM596.041 554H577.914L548.8 513.625C541.659 520.034 534.06 526.076 526.003 531.753C518.13 537.246 509.799 542.098 501.01 546.31C492.22 550.338 483.157 553.542 473.818 555.923C464.663 558.303 455.325 559.493 445.803 559.493C425.112 559.493 405.612 555.648 387.301 547.958C369.174 540.084 353.243 529.281 339.51 515.548C325.961 501.632 315.249 485.244 307.375 466.384C299.502 447.341 295.565 426.65 295.565 404.311C295.565 382.156 299.502 361.556 307.375 342.513C315.249 323.47 325.961 306.991 339.51 293.075C353.243 279.159 369.174 268.264 387.301 260.39C405.612 252.517 425.112 248.58 445.803 248.58C452.395 248.58 459.17 249.129 466.128 250.228C473.269 251.327 480.135 253.158 486.727 255.721C493.502 258.102 499.819 261.306 505.679 265.334C511.538 269.363 516.482 274.306 520.51 280.166V142.837H596.041V554ZM520.51 404.311C520.51 394.057 518.496 384.17 514.468 374.648C510.623 364.944 505.312 356.429 498.538 349.105C491.763 341.598 483.798 335.647 474.642 331.252C465.67 326.675 456.057 324.386 445.803 324.386C435.549 324.386 425.845 326.217 416.689 329.879C407.717 333.541 399.844 338.851 393.069 345.809C386.477 352.584 381.259 360.915 377.413 370.803C373.568 380.691 371.646 391.86 371.646 404.311C371.646 415.115 373.568 425.368 377.413 435.073C381.259 444.778 386.477 453.292 393.069 460.616C399.844 467.94 407.717 473.708 416.689 477.92C425.845 482.131 435.549 484.237 445.803 484.237C456.057 484.237 465.67 482.04 474.642 477.645C483.798 473.067 491.763 467.116 498.538 459.792C505.312 452.285 510.623 443.771 514.468 434.249C518.496 424.544 520.51 414.565 520.51 404.311ZM835.851 519.668C829.808 525.161 823.308 530.379 816.35 535.323C809.575 540.084 802.434 544.295 794.927 547.958C787.419 551.437 779.637 554.183 771.581 556.197C763.707 558.395 755.651 559.493 747.411 559.493C729.283 559.493 712.255 556.289 696.324 549.88C680.394 543.471 666.387 534.408 654.302 522.689C642.4 510.787 632.97 496.413 626.012 479.568C619.237 462.539 615.85 443.496 615.85 422.439V259.841H690.557V422.439C690.557 432.326 692.021 441.207 694.951 449.081C698.064 456.771 702.184 463.271 707.311 468.581C712.438 473.891 718.389 477.92 725.164 480.666C732.122 483.413 739.537 484.786 747.411 484.786C755.101 484.786 762.334 483.047 769.109 479.568C776.067 475.906 782.109 471.145 787.236 465.285C792.363 459.426 796.392 452.834 799.321 445.51C802.251 438.003 803.716 430.312 803.716 422.439V259.841H878.698V554H860.57L835.851 519.668Z" fill="#4A90E2"/>
<path d="M1268.85 556H1067.07V261.636H1268.85V320.55H1125.98V379.464H1222.67V438.378H1125.98V497.086H1268.85V556ZM1526.18 556H1454.74L1398.09 460.958L1341.22 556H1270.2L1360.52 408.818L1270.2 261.636H1341.22L1398.09 356.678L1454.74 261.636H1526.18L1435.86 408.818L1526.18 556Z" fill="#7D7D7D"/>
<path d="M1125 556.5H1062.04L948.633 362.906V556.5H889.775V262.418H952.734L1066.14 456.217V262.418H1125V556.5Z" fill="#7D7D7D"/>
</svg>
